<?xml version="1.0" encoding="UTF-8"?>
<svg id="Layer_3" data-name="Layer 3" xmlns="http://www.w3.org/2000/svg" viewBox="0 0 199.08 104.08">
  <defs>
    <style>
      .cls-1 {
        fill: #fff;
      }

      .cls-2 {
        fill: #00b6bc;
      }
    </style>
  </defs>
  <g>
    <path class="cls-1" d="m12.02,84.77c0,.09,0,.18-.02.25-.01.07-.04.13-.07.18-.03.05-.06.08-.11.11-.04.03-.09.04-.14.04h-4.17v12.58s-.01.08-.03.12-.06.06-.11.09-.12.04-.21.05c-.09.01-.19.02-.31.02s-.23,0-.31-.02c-.09-.01-.16-.03-.21-.05-.05-.02-.09-.05-.11-.09s-.03-.08-.03-.12v-12.58H2.03c-.06,0-.11-.01-.15-.04-.04-.02-.07-.06-.1-.11-.03-.05-.05-.11-.06-.18-.01-.07-.02-.15-.02-.25,0-.1,0-.19.02-.26s.04-.14.06-.19c.03-.05.06-.09.1-.11.04-.02.09-.04.15-.04h9.65c.05,0,.1.01.14.04.04.03.08.06.11.11.03.05.05.11.07.19.01.08.02.16.02.26Z"/>
    <path class="cls-1" d="m22.44,97.7c.04.11.06.2.06.26s-.03.12-.08.16c-.05.04-.12.06-.22.07-.1.01-.22.02-.37.02s-.27,0-.36-.02c-.09-.01-.16-.03-.21-.05-.05-.02-.09-.05-.11-.09-.03-.04-.05-.08-.07-.13l-1.34-3.72h-6.13l-1.29,3.7c-.01.05-.04.09-.06.13-.03.04-.07.07-.12.09-.05.02-.12.04-.21.06-.09.01-.2.02-.34.02-.15,0-.28,0-.38-.02-.1-.01-.17-.04-.22-.08-.05-.04-.07-.09-.08-.15,0-.06.02-.15.06-.26l4.89-13.29c.02-.06.05-.11.1-.15s.1-.07.17-.09c.07-.02.15-.04.25-.05.1-.01.21-.02.33-.02.13,0,.24,0,.34.02.1.01.18.03.25.05.07.02.12.05.16.09.04.04.07.09.09.15l4.89,13.29Zm-5.8-12.11h-.01l-2.63,7.51h5.34l-2.7-7.51Z"/>
    <path class="cls-1" d="m32.05,94.36c0,.62-.11,1.17-.33,1.66-.22.49-.54.91-.94,1.25s-.88.6-1.44.78c-.55.18-1.16.27-1.81.27-.45,0-.87-.04-1.26-.12-.4-.08-.75-.18-1.06-.3-.31-.12-.57-.23-.78-.35s-.36-.22-.44-.3-.14-.18-.17-.29c-.04-.11-.05-.25-.05-.42,0-.12,0-.22.02-.3.01-.08.03-.14.06-.19s.06-.08.1-.1c.04-.02.08-.03.12-.03.1,0,.24.06.43.19.18.13.42.26.71.41.29.15.64.28,1.05.41.41.13.88.19,1.42.19.44,0,.84-.06,1.21-.18.37-.12.68-.29.95-.51.27-.22.47-.5.62-.83s.22-.7.22-1.12-.09-.8-.28-1.11-.43-.58-.74-.81-.65-.45-1.04-.64c-.39-.19-.79-.38-1.19-.57-.41-.19-.8-.4-1.19-.62s-.74-.48-1.04-.78-.55-.65-.74-1.05c-.19-.4-.28-.88-.28-1.44s.1-1.02.29-1.45c.19-.43.47-.79.82-1.09.35-.3.78-.53,1.27-.69.49-.16,1.03-.24,1.62-.24.29,0,.59.03.9.09.3.06.59.13.86.22.27.09.51.19.72.3.21.11.35.2.42.27s.11.12.13.15c.02.03.03.07.05.12.01.05.02.11.03.18,0,.07.01.15.01.25,0,.09,0,.18-.02.25-.01.08-.03.14-.05.19-.02.05-.05.1-.08.12-.03.03-.07.04-.11.04-.08,0-.2-.05-.36-.16s-.37-.22-.61-.35c-.25-.13-.54-.25-.88-.35-.34-.1-.72-.16-1.16-.16s-.79.06-1.11.17c-.32.12-.58.27-.79.47-.21.2-.37.43-.47.7-.1.27-.16.55-.16.84,0,.43.09.8.28,1.11.19.31.43.58.74.82.31.24.66.45,1.05.64.39.19.79.38,1.2.57.41.19.81.4,1.2.62.39.22.74.48,1.05.78.31.3.56.65.75,1.05.19.4.28.87.28,1.42Z"/>
    <path class="cls-1" d="m43.49,97.9c0,.05,0,.09-.02.13s-.05.07-.1.09c-.05.02-.12.04-.21.06-.09.01-.2.02-.33.02s-.26,0-.39-.02c-.13-.01-.24-.04-.31-.09s-.13-.1-.18-.17l-5.65-7.17v7.17s-.01.08-.03.12-.06.06-.11.09c-.05.02-.12.04-.2.05-.08.01-.19.02-.32.02-.12,0-.23,0-.31-.02-.09-.01-.15-.03-.21-.05-.05-.02-.09-.05-.11-.09s-.03-.08-.03-.12v-13.54s.01-.08.03-.12.06-.06.11-.09c.05-.02.12-.04.21-.05.09-.01.19-.02.31-.02.13,0,.24,0,.32.02.08.01.15.03.2.05.05.02.09.05.11.09s.03.08.03.12v6.35l5.41-6.35c.04-.05.09-.09.14-.13.05-.04.11-.06.17-.09.06-.02.14-.04.23-.05.09-.01.19-.02.32-.02s.23,0,.31.02c.08.01.14.03.19.06.05.03.08.05.09.09.01.03.02.07.02.11,0,.08-.02.15-.06.23-.04.07-.11.16-.2.26l-5.08,5.82,5.43,6.81c.1.13.16.22.18.27.02.05.03.09.03.13Z"/>
    <path class="cls-1" d="m65.73,97.92s-.01.08-.03.12-.06.06-.11.09-.12.04-.21.05c-.08.01-.19.02-.32.02-.12,0-.22,0-.3-.02-.09-.01-.15-.03-.21-.05-.05-.02-.09-.05-.11-.09s-.03-.08-.03-.12v-12.6h-.02l-5.5,12.68s-.04.06-.06.08c-.03.03-.07.05-.12.06-.05.02-.11.03-.18.04-.07.01-.15.02-.24.02-.1,0-.19,0-.26-.02-.07-.01-.13-.02-.18-.04s-.08-.04-.11-.06c-.03-.02-.05-.05-.05-.08l-5.23-12.68h-.01v12.6s-.01.08-.03.12-.06.06-.11.09-.12.04-.21.05c-.08.01-.19.02-.33.02-.12,0-.23,0-.31-.02-.08-.01-.15-.03-.2-.05s-.08-.05-.1-.09-.03-.08-.03-.12v-13.07c0-.26.07-.44.21-.53.14-.1.27-.15.4-.15h.71c.18,0,.34.02.48.06s.26.1.36.17.19.17.26.28c.07.11.14.23.19.37l4.61,11.1h.05l4.8-11.06c.07-.17.15-.32.23-.44.08-.12.17-.21.26-.29.09-.07.19-.12.29-.15s.22-.04.34-.04h.79c.07,0,.13.01.21.03.07.02.14.06.19.11.06.05.11.12.15.21.04.09.06.19.06.32v13.07Z"/>
    <path class="cls-1" d="m79.73,97.7c.04.11.06.2.06.26s-.03.12-.08.16c-.05.04-.12.06-.22.07-.1.01-.22.02-.37.02s-.27,0-.36-.02c-.09-.01-.16-.03-.21-.05-.05-.02-.09-.05-.11-.09-.03-.04-.05-.08-.07-.13l-1.34-3.72h-6.13l-1.29,3.7c-.01.05-.04.09-.06.13-.03.04-.07.07-.12.09-.05.02-.12.04-.21.06-.09.01-.2.02-.34.02-.15,0-.28,0-.38-.02-.1-.01-.17-.04-.22-.08-.05-.04-.07-.09-.08-.15,0-.06.02-.15.06-.26l4.89-13.29c.02-.06.05-.11.1-.15s.1-.07.17-.09c.07-.02.15-.04.25-.05.1-.01.21-.02.33-.02.13,0,.24,0,.34.02.1.01.18.03.25.05.07.02.12.05.16.09.04.04.07.09.09.15l4.89,13.29Zm-5.8-12.11h-.01l-2.63,7.51h5.34l-2.7-7.51Z"/>
    <path class="cls-1" d="m92.3,97.5c0,.13-.02.24-.06.32-.04.09-.09.16-.15.21-.06.05-.13.09-.21.11-.08.02-.15.03-.21.03h-.27c-.14,0-.28-.02-.39-.05-.12-.04-.23-.1-.35-.19s-.22-.21-.33-.36c-.11-.15-.24-.35-.37-.58l-4.92-8.72c-.25-.42-.49-.86-.74-1.31-.25-.45-.48-.89-.71-1.31h-.01c0,.53.01,1.06.01,1.61v10.66s-.01.08-.03.12-.06.06-.11.09c-.05.02-.12.04-.2.05-.08.01-.19.02-.32.02-.12,0-.23,0-.31-.02-.09-.01-.15-.03-.21-.05-.05-.02-.09-.05-.11-.09s-.03-.08-.03-.12v-13.07c0-.26.07-.44.21-.53.14-.1.27-.15.4-.15h.54c.17,0,.32.01.43.04.11.03.22.08.31.15s.19.17.28.29.19.29.3.48l3.77,6.68c.24.42.46.82.67,1.2.21.39.42.76.62,1.13s.4.74.6,1.1c.2.36.39.72.59,1.09h.01c0-.6-.01-1.23-.01-1.89v-10.02s.01-.08.03-.12.06-.07.11-.09.12-.04.2-.05c.08-.01.19-.02.32-.02.11,0,.22,0,.3.02.09.01.16.03.21.05s.09.06.11.09.04.08.04.12v13.07Z"/>
    <path class="cls-1" d="m106.3,97.7c.04.11.06.2.06.26s-.03.12-.08.16c-.05.04-.12.06-.22.07-.1.01-.22.02-.37.02s-.27,0-.36-.02c-.09-.01-.16-.03-.21-.05-.05-.02-.09-.05-.11-.09-.03-.04-.05-.08-.07-.13l-1.34-3.72h-6.13l-1.29,3.7c-.01.05-.04.09-.06.13-.03.04-.07.07-.12.09-.05.02-.12.04-.21.06-.09.01-.2.02-.34.02-.15,0-.28,0-.38-.02-.1-.01-.17-.04-.22-.08-.05-.04-.07-.09-.08-.15,0-.06.02-.15.06-.26l4.89-13.29c.02-.06.05-.11.1-.15s.1-.07.17-.09c.07-.02.15-.04.25-.05.1-.01.21-.02.33-.02.13,0,.24,0,.34.02.1.01.18.03.25.05.07.02.12.05.16.09.04.04.07.09.09.15l4.89,13.29Zm-5.8-12.11h-.01l-2.63,7.51h5.34l-2.7-7.51Z"/>
    <path class="cls-1" d="m118.84,85.93c0,.09,0,.18-.02.26-.01.08-.03.15-.06.2-.02.05-.06.1-.1.12-.04.03-.08.04-.12.04-.09,0-.23-.07-.43-.22s-.46-.3-.79-.47c-.33-.17-.73-.33-1.2-.47-.47-.14-1.03-.22-1.68-.22-.83,0-1.57.15-2.21.46-.65.31-1.19.73-1.64,1.26s-.79,1.16-1.02,1.89c-.23.73-.35,1.52-.35,2.36,0,.94.13,1.78.4,2.52s.63,1.36,1.11,1.87c.47.51,1.03.89,1.68,1.16.65.27,1.36.4,2.13.4.5,0,1-.06,1.51-.18.51-.12.99-.31,1.44-.56v-4.52h-3.56c-.12,0-.2-.05-.26-.15-.06-.1-.09-.24-.09-.43,0-.1,0-.19.02-.26.01-.08.04-.14.07-.18.03-.05.06-.08.11-.11.04-.03.09-.04.15-.04h4.28c.06,0,.13.01.21.03.07.02.14.06.2.11.06.05.11.12.15.21s.05.2.05.33v5.19c0,.17-.03.32-.08.44-.05.12-.18.24-.37.35-.19.11-.45.23-.78.37-.32.13-.66.25-1,.33-.35.09-.69.16-1.04.21-.35.05-.69.07-1.03.07-1.06,0-2-.17-2.83-.51-.83-.34-1.53-.82-2.11-1.45s-1.01-1.36-1.31-2.22c-.3-.86-.45-1.81-.45-2.84,0-1.09.16-2.08.49-2.97.33-.9.79-1.66,1.38-2.29.59-.63,1.3-1.12,2.13-1.47.83-.35,1.74-.52,2.74-.52.5,0,.98.05,1.43.14.45.09.85.21,1.21.34.36.13.67.28.92.43.25.15.42.28.51.37.09.09.15.18.18.26.03.09.05.21.05.38Z"/>
    <path class="cls-1" d="m130.1,97.56c0,.09,0,.18-.02.25-.01.07-.04.13-.07.18-.03.05-.07.09-.11.11-.04.02-.09.04-.14.04h-6.54c-.13,0-.26-.05-.4-.15-.14-.1-.21-.28-.21-.53v-12.61c0-.26.07-.44.21-.53.14-.1.27-.15.4-.15h6.45s.1.01.14.04c.04.03.08.06.11.11.03.05.05.11.06.19s.02.16.02.26c0,.09,0,.18-.02.25-.01.07-.04.13-.06.18-.03.05-.06.08-.11.11-.04.03-.09.04-.14.04h-5.73v4.91h4.95c.06,0,.11.01.15.04.04.03.08.06.11.11.03.05.05.11.06.18.01.08.02.16.02.26,0,.09,0,.17-.02.24s-.04.12-.06.17c-.03.04-.06.08-.11.1-.04.02-.09.03-.15.03h-4.95v5.57h5.83c.05,0,.1.01.14.04.04.03.08.06.11.11.03.05.06.11.07.18.01.08.02.16.02.26Z"/>
    <path class="cls-1" d="m142.16,97.9c0,.05,0,.09-.03.13-.02.04-.05.07-.1.09-.05.02-.12.04-.21.06-.09.01-.2.02-.34.02-.12,0-.23,0-.31-.02-.08-.01-.15-.03-.21-.06s-.1-.08-.14-.13c-.04-.05-.07-.12-.1-.21l-1.31-3.39c-.15-.38-.31-.74-.49-1.08-.17-.34-.38-.63-.63-.88-.25-.25-.54-.44-.89-.59-.35-.14-.76-.22-1.24-.22h-1.45v6.29s-.01.08-.03.12-.06.06-.11.09c-.05.02-.12.04-.2.05-.08.01-.19.02-.32.02-.12,0-.23,0-.31-.02-.09-.01-.15-.03-.21-.05-.05-.02-.09-.05-.11-.09s-.03-.08-.03-.12v-13.07c0-.26.07-.44.21-.53.14-.1.27-.15.4-.15h2.62c.35,0,.63,0,.86.03s.43.04.62.07c.53.09,1,.24,1.39.45.4.21.72.47.98.77.26.31.45.65.58,1.04s.19.8.19,1.25-.07.87-.19,1.24c-.13.36-.31.68-.55.96-.24.28-.52.52-.85.72-.33.2-.7.37-1.09.51.24.11.45.24.64.4.19.16.37.35.53.57.16.22.32.48.46.77.14.29.29.62.43.98l1.31,3.26c.09.25.15.42.18.52.02.09.04.16.04.21Zm-2.32-9.99c0-.6-.13-1.1-.4-1.52-.27-.41-.71-.71-1.34-.89-.21-.06-.44-.1-.68-.12-.25-.02-.57-.04-.96-.04h-1.73v5.13h2.01c.54,0,1-.07,1.39-.2.39-.13.71-.31.97-.54s.44-.5.56-.81c.12-.31.18-.64.18-1Z"/>
    <path class="cls-1" d="m158.22,88.17c0,.65-.11,1.24-.33,1.78-.22.54-.54,1-.95,1.39s-.91.69-1.5.91c-.59.22-1.3.32-2.14.32h-1.81v5.34s-.01.08-.03.12-.06.06-.11.09c-.05.02-.12.04-.2.05-.08.01-.19.02-.32.02-.12,0-.23,0-.31-.02-.09-.01-.15-.03-.21-.05-.05-.02-.09-.05-.11-.09s-.03-.08-.03-.12v-13.07c0-.26.07-.44.21-.53.14-.1.27-.15.4-.15h2.84c.28,0,.55.01.82.04.27.03.58.08.93.16.36.08.72.24,1.09.46.37.23.69.5.95.83.26.33.46.7.6,1.12.14.42.21.88.21,1.39Zm-1.39.12c0-.6-.12-1.12-.36-1.54s-.53-.73-.87-.94c-.34-.21-.7-.33-1.07-.39-.37-.05-.72-.08-1.05-.08h-1.99v6.07h1.9c.61,0,1.12-.08,1.53-.23s.76-.37,1.04-.64c.28-.27.5-.6.64-.99s.22-.8.22-1.26Z"/>
    <path class="cls-1" d="m172.65,90.99c0,1.12-.13,2.12-.38,3.03-.26.9-.64,1.67-1.15,2.31-.51.64-1.16,1.13-1.93,1.47-.78.35-1.68.52-2.72.52s-1.93-.16-2.67-.49c-.75-.33-1.36-.8-1.83-1.4-.48-.61-.83-1.35-1.06-2.23-.23-.88-.34-1.87-.34-2.97s.13-2.09.38-2.98c.25-.89.63-1.65,1.15-2.28s1.16-1.12,1.93-1.46c.77-.35,1.68-.52,2.73-.52s1.89.16,2.63.49c.74.32,1.36.79,1.84,1.39.49.6.85,1.34,1.08,2.2.23.86.35,1.84.35,2.93Zm-1.4.12c0-.83-.08-1.6-.23-2.33-.15-.72-.41-1.35-.77-1.89s-.83-.96-1.42-1.26c-.59-.31-1.32-.46-2.19-.46s-1.59.16-2.19.48-1.08.75-1.45,1.29c-.37.54-.64,1.17-.8,1.89-.16.72-.24,1.48-.24,2.28,0,.85.07,1.64.22,2.37s.4,1.37.75,1.91c.35.54.82.96,1.42,1.27.59.31,1.33.46,2.21.46s1.62-.16,2.21-.49c.6-.33,1.08-.77,1.45-1.32s.63-1.19.79-1.91c.16-.72.24-1.48.24-2.28Z"/>
    <path class="cls-1" d="m187.11,90.99c0,1.12-.13,2.12-.38,3.03-.26.9-.64,1.67-1.15,2.31-.51.64-1.16,1.13-1.93,1.47-.78.35-1.68.52-2.72.52s-1.93-.16-2.67-.49c-.75-.33-1.36-.8-1.83-1.4-.48-.61-.83-1.35-1.06-2.23-.23-.88-.34-1.87-.34-2.97s.13-2.09.38-2.98c.25-.89.63-1.65,1.15-2.28s1.16-1.12,1.93-1.46c.77-.35,1.68-.52,2.73-.52s1.89.16,2.63.49c.74.32,1.36.79,1.84,1.39.49.6.85,1.34,1.08,2.2.23.86.35,1.84.35,2.93Zm-1.4.12c0-.83-.08-1.6-.23-2.33-.15-.72-.41-1.35-.77-1.89s-.83-.96-1.42-1.26c-.59-.31-1.32-.46-2.19-.46s-1.59.16-2.19.48-1.08.75-1.45,1.29c-.37.54-.64,1.17-.8,1.89-.16.72-.24,1.48-.24,2.28,0,.85.07,1.64.22,2.37s.4,1.37.75,1.91c.35.54.82.96,1.42,1.27.59.31,1.33.46,2.21.46s1.62-.16,2.21-.49c.6-.33,1.08-.77,1.45-1.32s.63-1.19.79-1.91c.16-.72.24-1.48.24-2.28Z"/>
    <path class="cls-1" d="m197.35,97.53c0,.1,0,.19-.02.26-.01.07-.04.14-.06.19-.03.05-.06.09-.11.12-.04.02-.09.04-.15.04h-6.06c-.13,0-.26-.05-.4-.15-.14-.1-.21-.28-.21-.53v-13.07s.01-.08.03-.12.06-.06.11-.09c.05-.02.12-.04.21-.05.09-.01.19-.02.31-.02.13,0,.24,0,.32.02.08.01.15.03.2.05.05.02.09.05.11.09s.03.08.03.12v12.56h5.34c.06,0,.11.01.15.04.04.03.08.06.11.11.03.05.05.11.06.18s.02.16.02.26Z"/>
  </g>
  <g>
    <g>
      <path class="cls-2" d="m93.86,73.88c-.51-.45-.85-1-1.03-1.64l-18.61-54.06v53.82c0,.61-.17,1.17-.51,1.67-.2.28-.46.53-.79.73h21.68c-.28-.16-.52-.33-.74-.53Z"/>
      <path class="cls-2" d="m130.34,73.71c-.38-.5-.57-1.08-.57-1.71V17.98l-19.38,54.35c-.2.64-.55,1.22-1.04,1.68-.16.15-.33.28-.52.4h22.27c-.31-.2-.57-.43-.77-.69Z"/>
      <path class="cls-2" d="m85.42,3.94c.65,1.15,1.22,2.58,1.69,4.24l15.08,41.52,15.63-41.46c.49-1.6,1.07-3.03,1.69-4.2.65-1.22,1.43-2.23,2.31-3.01.46-.4.97-.75,1.51-1.04h-42.17c.59.26,1.14.58,1.64.94,1.05.76,1.92,1.77,2.61,3Z"/>
    </g>
    <path class="cls-2" d="m57.85,5.48h0c-.12-1-.31-1.81-.58-2.49-.37-.93-.91-1.66-1.6-2.16-.74-.55-1.62-.83-2.53-.83H4.86c-.98,0-1.89.31-2.62.88-.64.5-1.14,1.21-1.5,2.11-.27.68-.46,1.49-.58,2.48C.05,6.33,0,7.32,0,8.51s.05,2.13.15,2.96c.12.98.31,1.78.58,2.45.35.87.82,1.56,1.41,2.06.76.65,1.7.99,2.72.99h14.36v52.43c0,1,.34,1.94.96,2.71.57.7,1.39,1.24,2.42,1.58.72.24,1.6.42,2.7.55,1.01.12,2.22.18,3.69.18s2.67-.06,3.69-.18c1.1-.13,1.98-.31,2.7-.55,1.04-.34,1.85-.87,2.42-1.58.63-.78.97-1.72.97-2.71V16.96h14.36c.95,0,1.86-.32,2.61-.93.65-.51,1.16-1.23,1.52-2.13.27-.67.45-1.47.58-2.45.1-.84.15-1.84.15-2.95s-.05-2.17-.15-3.02Z"/>
    <path class="cls-2" d="m197.76,15.14c-.89-2.58-2.22-4.87-3.94-6.81-1.7-1.93-3.78-3.53-6.18-4.78-2.33-1.21-4.67-2.06-6.97-2.51-2.14-.42-4.02-.71-5.57-.84-1.54-.13-3.18-.2-4.87-.2h-16.15c-2.12,0-3.97.7-5.34,2.02-1.43,1.37-2.16,3.31-2.16,5.75v61.63c0,.96.3,1.86.88,2.63.56.75,1.39,1.31,2.46,1.66.72.24,1.6.42,2.7.55,1.02.12,2.22.18,3.69.18s2.72-.06,3.72-.18c1.08-.13,1.96-.31,2.66-.55,1.04-.34,1.86-.88,2.43-1.58.64-.78.97-1.72.97-2.71v-19.08h2.93c4.79,0,9.03-.58,12.62-1.72,3.7-1.17,6.87-2.92,9.45-5.2,2.61-2.31,4.62-5.18,5.98-8.54,1.33-3.29,2-7.08,2-11.26,0-3.08-.44-5.93-1.32-8.46Zm-18.82,9.46c0,1.46-.2,2.81-.6,4.02-.38,1.15-.9,2.09-1.61,2.89-.67.75-1.52,1.33-2.63,1.77-1.16.46-2.69.7-4.55.7h-3.46v-17.66h3.14c1.31,0,2.59.09,3.81.26,1,.14,1.93.48,2.85,1.03.8.48,1.51,1.28,2.11,2.38.62,1.13.93,2.68.93,4.6Z"/>
  </g>
</svg>